<svg xmlns="http://www.w3.org/2000/svg" id="Layer_1" data-name="Layer 1" viewBox="0 0 997.64 195.19"><path class="acls-1" fill="#2ac7a4" d="M107.91 170.72l-70.98-39.66v-77.9l70.98 39.67v77.89z"/>
 <path class="acls-2" fill="#0e8167" d="M144.37 170.72l70.97-39.66v-77.9l-70.97 39.67v77.89z"/>
 <path class="acls-3" fill="none" opacity=".8" stroke="#2ac7a4" stroke-linecap="round" stroke-linejoin="round" stroke-width="2.2" d="M126.09 144.13l-70.97-39.67V26.57l70.97 39.67v77.89zM126.09 144.13l71.07-39.46V26.78l-70.98 39.66"/>
 <path class="acls-4" fill="#586965" d="M271.99 158.42H298V88.09l35.07 57.67h12.5l35.25-59.21.17 71.87H407l-.34-119.79H383.9l-44.41 73.12-46.34-73.12h-21.16v119.79zM497.09 38.63h-27.38l-53.39 119.79h28.41l10.61-25.67H511l10.61 25.67h29.09zm-32.91 72.81l19.31-46 18.6 46zM563.5 38.63h27.72v97.2h60.06v22.59H563.5V38.63zM666.85 38.63h27.72v119.79h-27.72zM808.63 96.13S828.08 85.94 824 64.54c0-.2-2.09-24.52-40.33-25.91.21.19-63 0-63 0v119.79h66s32.21 0 40.75-19c.63.46 13.78-31.6-18.79-43.29zM748.2 59.49h27.42S797.07 58 796.69 73.7c-.07.06 2.08 13.72-19.71 14.07 0 .06-28.78-.12-28.78-.12zm32.59 81.42c0 .07-32.87 0-32.87 0l-.06-29.69h31.38s23.45-1.64 24.09 14.9c-.07.11 2.67 14.81-22.54 14.79zM852.86 37.56h27.72v69.82s-.2 30 26.7 28.41c0 0 25.18 3.05 26.89-27.22.24 0-.2-71-.2-71h27.38v72s.71 50.15-54.24 49.85c0 0-51.59 4.58-54.25-51.56z"/></svg>
