<svg xmlns="http://www.w3.org/2000/svg" width="26" height="26" viewBox="0 0 33 32">
    <path fill="#333" fill-rule="evenodd" d="M26.48 25c.488 0 .888-.165 1.2-.495.314-.33.47-.712.47-1.146 0-.434-.156-.824-.47-1.171a1.552 1.552 0 0 1-.156-.209c-.8-.833-1.391-1.65-1.774-2.448-.626-1.389-.94-3.177-.94-5.364 0-2.014-.626-3.768-1.879-5.26-1.252-1.494-2.853-2.431-4.801-2.813V5a1.6 1.6 0 0 0-.496-1.172 1.607 1.607 0 0 0-1.174-.495c-.453 0-.844.165-1.175.495A1.6 1.6 0 0 0 14.79 5v1.094c-1.949.382-3.55 1.32-4.802 2.812-1.253 1.493-1.879 3.247-1.879 5.26 0 2.188-.313 3.976-.94 5.365-.382.799-.974 1.615-1.774 2.448l-.157.209c-.313.347-.47.737-.47 1.171 0 .434.157.816.47 1.146.314.33.714.495 1.2.495h20.043zm-10.02 5c.904 0 1.687-.321 2.348-.964.661-.642.992-1.432.992-2.37h-6.68c0 .938.33 1.728.991 2.37.661.643 1.444.964 2.349.964z"/>
</svg>
