<svg xmlns="http://www.w3.org/2000/svg" xmlns:xlink="http://www.w3.org/1999/xlink" width="25" height="24" viewBox="0 0 25 24">
    <defs>
        <linearGradient id="b" x1="0%" x2="110.694%" y1="0%" y2="109.202%">
            <stop offset="0%" stop-color="#724AC6"/>
            <stop offset="53.59%" stop-color="#E5375E"/>
            <stop offset="100%" stop-color="#FC9949"/>
        </linearGradient>
        <path id="a" d="M9 4.636c.784 0 1.512.196 2.182.588.67.392 1.202.924 1.594 1.594.392.67.588 1.398.588 2.182s-.196 1.512-.588 2.182a4.377 4.377 0 0 1-1.594 1.594A4.246 4.246 0 0 1 9 13.364a4.246 4.246 0 0 1-2.182-.588 4.377 4.377 0 0 1-1.594-1.594A4.246 4.246 0 0 1 4.636 9c0-.784.196-1.512.588-2.182a4.377 4.377 0 0 1 1.594-1.594A4.246 4.246 0 0 1 9 4.636zm0 7.21c.784 0 1.455-.278 2.011-.835A2.741 2.741 0 0 0 11.846 9c0-.784-.278-1.455-.835-2.011A2.741 2.741 0 0 0 9 6.154c-.784 0-1.455.278-2.011.835A2.741 2.741 0 0 0 6.154 9c0 .784.278 1.455.835 2.011A2.741 2.741 0 0 0 9 11.846zm5.578-7.4a1.182 1.182 0 0 1-.322.721.924.924 0 0 1-.702.304.985.985 0 0 1-.721-.304.985.985 0 0 1-.304-.72c0-.279.101-.52.304-.722a.985.985 0 0 1 .72-.303c.279 0 .52.101.722.303a.985.985 0 0 1 .303.721zm2.884 1.025c.025.708.038 1.885.038 3.529s-.019 2.827-.057 3.548c-.038.721-.145 1.347-.322 1.878a4.423 4.423 0 0 1-1.044 1.651 4.423 4.423 0 0 1-1.65 1.044c-.532.177-1.158.284-1.879.322-.721.038-1.904.057-3.548.057-1.644 0-2.827-.019-3.548-.057-.721-.038-1.347-.158-1.878-.36a4.045 4.045 0 0 1-1.651-1.006 4.423 4.423 0 0 1-1.044-1.65c-.177-.532-.284-1.158-.322-1.879C.519 11.827.5 10.644.5 9c0-1.644.019-2.827.057-3.548.038-.721.145-1.347.322-1.878a4.423 4.423 0 0 1 1.044-1.651A4.423 4.423 0 0 1 3.573.879C4.106.702 4.732.595 5.453.557 6.173.519 7.356.5 9 .5c1.644 0 2.827.019 3.548.057.721.038 1.347.145 1.878.322a4.423 4.423 0 0 1 1.651 1.044 4.423 4.423 0 0 1 1.044 1.65c.177.532.29 1.164.341 1.898zm-1.821 8.538c.151-.43.253-1.113.303-2.05.025-.556.038-1.34.038-2.352V8.393a53.74 53.74 0 0 0-.038-2.353c-.05-.961-.152-1.644-.303-2.049a2.739 2.739 0 0 0-1.632-1.632c-.405-.151-1.088-.253-2.05-.303a55.362 55.362 0 0 0-2.352-.038H8.393c-1.012 0-1.796.013-2.353.038-.936.05-1.619.152-2.049.303A2.739 2.739 0 0 0 2.36 3.991c-.151.405-.253 1.088-.303 2.05-.025.556-.038 1.34-.038 2.352v1.214c0 1.012.013 1.796.038 2.353.05.936.152 1.619.303 2.049.33.784.873 1.328 1.632 1.632.43.151 1.113.253 2.05.303.556.025 1.34.038 2.352.038h1.214a53.74 53.74 0 0 0 2.353-.038c.961-.05 1.644-.152 2.049-.303.784-.33 1.328-.873 1.632-1.632z"/>
    </defs>
    <use fill="url(#b)" fill-rule="nonzero" transform="translate(3.056 3)" xlink:href="#a"/>
</svg>
