<svg xmlns="http://www.w3.org/2000/svg" width="201" height="58" viewBox="0 0 201 58">
    <g fill="none" fill-rule="evenodd">
        <path fill="#000" d="M11.1 29.657v10.035c0-.038.149 4.402 3.962 4.29 2.878-.038 3.364-2.835 3.44-4.216v-10.11h-7.403zm124.706 3.619v-3.62h-12.635c4.785 9.513-3.402 13.617-7.028 14.923 2.692 5.334 8.15 8.543 12.822 5.446l-.224-.112-.075-.037-.074-.075-.113-.037-.112-.074-.075-.075-.074-.037-.112-.075-.076-.037-.111-.112-.076-.038-.074-.074c-.038 0-.075-.037-.15-.075l-.074-.074-.075-.075-.038-.037-.112-.075-.112-.074-.074-.075-.038-.075-.112-.074-.112-.112-.075-.075-.038-.037-.074-.075-.075-.112-.074-.074-.113-.075-.037-.075-.112-.111-.038-.038-.074-.112-.038-.074-.112-.112-.037-.038a.506.506 0 0 1-.112-.149l-.038-.037-.075-.112-.037-.075a.506.506 0 0 1-.112-.149l-.037-.037-.038-.112-.037-.075c-.038-.037-.075-.074-.112-.149l-.038-.037c0-.037-.037-.075-.075-.15v-.037c-.037-.037-.074-.112-.112-.149l-.038-.075c0-.037-.036-.074-.036-.111l-.038-.038c-.038-.074-.038-.112-.075-.186v-.038a.283.283 0 0 1-.074-.149l-.038-.037c0-.075-.037-.112-.074-.187v-.037c-.038-.037-.038-.112-.075-.15v-.036a1.791 1.791 0 0 1-.15-.41c-.037-.075-.037-.113-.075-.187v-.038c0-.074-.037-.112-.037-.186l-.037-.037c0-.15-.038-.299-.075-.41-.037-.075-.037-.15-.037-.225v-.037c-.038-.037-.038-.112-.038-.187v-.037c-.037-.037-.037-.112-.037-.186v-.038c-.038-.112-.038-.26-.038-.41l-.037-.037v-.672c0-5.036 4.149-9.102 9.308-9.102.822 0 1.607.112 2.355.299zm0 11.788V38.61a1.45 1.45 0 0 0-.972-.373c-1.158 0-2.093 1.604-2.093 3.618 0 1.978.935 3.619 2.093 3.619.337 0 .673-.15.972-.41zm26.729 3.357l-7.178-7.2c-.075.41-.112.82-.112 1.231 0 3.432 2.542 6.23 5.682 6.23.56 0 1.084-.112 1.608-.26zM177 40.065c2.318 12.087 14.355 18.167 23.402 13.206l-1.645-2.985c-4.486 2.65-9.57-.56-12.112-5.782 3.7-1.38 11.476-5.52 6.84-14.847h6.953v-3.395h-94.277v3.395h8.449c1.831 2.947 5.495 10.035.448 12.012a13.769 13.769 0 0 1-.56-3.506l-8.3 1.902c2.655 13.542 17.72 19.622 27.102 11.08h.636c.075 0 .15 0 .224-.038h.262c.075 0 .15-.037.224-.037.075 0 .15 0 .225-.037.074 0 .15 0 .224-.038.075 0 .15 0 .225-.037.074 0 .149-.037.26-.037.076-.038.113-.038.188-.075h.037v4.215h8.523V29.657h21.532v13.69l-6.766-6.751a4.978 4.978 0 0 1 1.832-.336c1.383 0 2.617.522 3.626 1.417v-4.663a12.001 12.001 0 0 0-6.206-1.716c-6.392 0-11.55 4.925-11.55 10.93 0 6.044 5.158 10.968 11.55 10.968 2.879 0 5.496-1.007 7.514-2.648v4.55h8.524V29.658h10.541c1.795 2.91 5.346 9.773.673 11.9-.299-1.082-.448-2.238-.486-3.394l-8.112 1.902zM35.958 44.094h2.356c.037.186.075.373.075.56v1.342h.036c-.074 1.604-.635 2.836-1.308 2.836-.748 0-1.345-1.418-1.345-3.171 0-.56.074-1.12.186-1.567zm13.42-5.857h-2.504v-7.536c-.037-3.544-3.813-5.409-8.523-5.409-4.748 0-8.822 2.09-8.822 5.894 0 3.806 3.065 5.298 7.476 5.298v-4.85c-.449 0-1.122-.336-1.196-1.12-.075-.894.598-1.417 1.271-1.454.673 0 1.309.522 1.309 1.231V38.2h-.711c-3.215 0-8.15 2.388-8.15 7.238 0 4.85 3.889 7.61 8.673 7.61 4.673 0 8.449-3.134 8.673-7.05v-1.903h2.505V55.06h8.523V29.657h2.58v25.367h8.522V29.657h19.887v3.507C73.116 31.597 66.201 46.257 76.294 54.8l8.373-2.2c-6.541-6.044-7.065-19.1 4.224-16.19v18.689h8.524V29.657h1.57v-3.395H46.949v.746c.822.784 1.308 1.679 1.383 2.649h1.047v8.58zm-22.429-8.58v25.442h-8.523v-6.827c-2.729 5.222-8.71 8.207-14.542 9.699L.408 50.249c4.337.037 9.944.112 13.458-2.387-5.421 1.79-11.327-2.724-11.29-7.872V29.657H.296v-3.395h29.233v.672c-.86.783-1.384 1.716-1.458 2.723h-1.122z"/>
        <path fill="#F58634" d="M95.508 0c11.402 0 20.71 9.96 20.822 22.233H74.65C74.799 9.96 84.107 0 95.509 0"/>
        <path fill="#FFF" d="M97.377 8.953c.673 0 1.309-1.082 1.944-1.082 4.449-.037 6.916-.82 8.187-.522 1.794.448 2.504 2.2 4.299 2.574l.934-5.036c1.645-2.052 2.804.26 4.972-.597 4.225-1.641 5.832.224 8.673 2.947-2.019.373-3.776-.112-5.233-1.418-.524.635-1.048 1.269-1.57 1.866-1.907.447-2.991.485-3.814 1.753 1.01.298 1.869.41 2.691.895l1.048 1.343c-1.533-.335-2.73-.41-4.262.41-1.383 2.5-4.112 4.03-9.383 3.358-2.018.335-3.476 1.455-5.01 2.947l-3.214-.224c1.832-1.977 7.551-2.872 10.355-5.782-4.822.075-7.178-3.917-10.617-3.432"/>
        <path stroke="#F58634" stroke-width=".5" d="M97.377 8.953c.673 0 1.309-1.082 1.944-1.082 4.449-.037 6.916-.82 8.187-.522 1.794.448 2.504 2.2 4.299 2.574l.934-5.036c1.645-2.052 2.804.26 4.972-.597 4.225-1.641 5.832.224 8.673 2.947-2.019.373-3.776-.112-5.233-1.418-.524.635-1.048 1.269-1.57 1.866-1.907.447-2.991.485-3.814 1.753 1.01.298 1.869.41 2.691.895l1.048 1.343c-1.533-.335-2.73-.41-4.262.41-1.383 2.5-4.112 4.03-9.383 3.358-2.018.335-3.476 1.455-5.01 2.947l-3.214-.224c1.832-1.977 7.551-2.872 10.355-5.782-4.822.075-7.178-3.917-10.617-3.432z"/>
    </g>
</svg>
