<svg xmlns="http://www.w3.org/2000/svg" width="24" height="24" viewBox="0 0 24 24">
    <g fill="none" fill-rule="evenodd">
        <rect width="24" height="24" fill="#FFF" fill-opacity=".85" rx="3"/>
        <path fill="#797979" fill-rule="nonzero" d="M17.687 17.875c.365 0 .675-.128.93-.383s.383-.565.383-.93V8.689c0-.365-.128-.675-.383-.93a1.266 1.266 0 0 0-.93-.383h-2.406l-.328-.902a1.425 1.425 0 0 0-.492-.616 1.247 1.247 0 0 0-.738-.232h-3.446c-.273 0-.52.078-.738.232-.219.155-.383.36-.492.616l-.328.902H6.312c-.364 0-.674.128-.93.383a1.266 1.266 0 0 0-.382.93v7.875c0 .364.128.674.383.93.255.254.565.382.93.382h11.374zM12 15.906a3.23 3.23 0 0 1-1.654-.437 3.237 3.237 0 0 1-1.19-1.19 3.23 3.23 0 0 1-.437-1.654c0-.602.146-1.153.437-1.654a3.237 3.237 0 0 1 1.19-1.19A3.23 3.23 0 0 1 12 9.344a3.23 3.23 0 0 1 1.654.437c.502.292.898.688 1.19 1.19a3.23 3.23 0 0 1 .437 1.654 3.23 3.23 0 0 1-.437 1.654 3.237 3.237 0 0 1-1.19 1.19 3.23 3.23 0 0 1-1.654.437zm0-.875c.656 0 1.221-.237 1.695-.71.474-.475.711-1.04.711-1.696 0-.656-.237-1.221-.71-1.695A2.314 2.314 0 0 0 12 10.219c-.656 0-1.221.237-1.695.71a2.314 2.314 0 0 0-.711 1.696c0 .656.237 1.221.71 1.695.475.474 1.04.711 1.696.711z"/>
    </g>
</svg>
