<svg xmlns="http://www.w3.org/2000/svg" width="25" height="24" viewBox="0 0 25 24">
    <path fill="#333" fill-rule="evenodd" d="M21.515 22c.124 0 .236-.05.335-.148l.855-.817a.542.542 0 0 0 .112-.334.4.4 0 0 0-.112-.297l-4.537-4.527a.403.403 0 0 0-.297-.111h-.52a7.969 7.969 0 0 0 1.394-2.338 7.45 7.45 0 0 0 .502-2.71c0-1.41-.347-2.702-1.041-3.877a7.807 7.807 0 0 0-2.808-2.802C14.22 3.346 12.925 3 11.512 3c-1.413 0-2.709.346-3.886 1.04a7.807 7.807 0 0 0-2.808 2.8c-.694 1.176-1.04 2.469-1.04 3.879 0 1.41.346 2.703 1.04 3.878a7.807 7.807 0 0 0 2.808 2.801c1.177.693 2.473 1.04 3.886 1.04.942 0 1.847-.167 2.715-.501a7.992 7.992 0 0 0 2.342-1.392v.52c0 .098.037.197.112.296l4.537 4.49a.354.354 0 0 0 .297.149zm-10.003-5.344a5.83 5.83 0 0 1-2.975-.798 5.901 5.901 0 0 1-2.175-2.17 5.799 5.799 0 0 1-.8-2.97c0-1.063.267-2.053.8-2.968a5.901 5.901 0 0 1 2.175-2.17 5.83 5.83 0 0 1 2.975-.799 5.83 5.83 0 0 1 2.975.798 5.901 5.901 0 0 1 2.175 2.171c.533.915.8 1.905.8 2.969a5.799 5.799 0 0 1-.8 2.969 5.901 5.901 0 0 1-2.175 2.17 5.83 5.83 0 0 1-2.975.798z"/>
</svg>
