<svg xmlns="http://www.w3.org/2000/svg" width="25" height="24" viewBox="0 0 25 24">
    <path fill="#1CB7EB" fill-rule="nonzero" d="M19.193 8.594c.023.094.035.246.035.457 0 1.687-.41 3.316-1.23 4.887-.844 1.664-2.028 2.988-3.551 3.972-1.664 1.102-3.574 1.652-5.73 1.652-2.063 0-3.95-.55-5.66-1.652.257.024.55.035.878.035 1.711 0 3.246-.527 4.606-1.582-.82 0-1.541-.24-2.162-.72a3.671 3.671 0 0 1-1.284-1.811c.235.023.457.035.668.035.328 0 .657-.035.985-.105a3.72 3.72 0 0 1-2.11-1.301 3.54 3.54 0 0 1-.843-2.32v-.07a3.475 3.475 0 0 0 1.652.492 4.095 4.095 0 0 1-1.195-1.336 3.546 3.546 0 0 1-.457-1.776c0-.644.175-1.26.527-1.845a10.18 10.18 0 0 0 3.357 2.742 10.219 10.219 0 0 0 4.237 1.125 5.124 5.124 0 0 1-.07-.844c0-.656.163-1.272.491-1.846a3.613 3.613 0 0 1 1.336-1.353 3.565 3.565 0 0 1 1.829-.492c.539 0 1.037.105 1.494.316.457.21.861.492 1.213.844a7.51 7.51 0 0 0 2.355-.88c-.281.868-.82 1.548-1.617 2.04a7.93 7.93 0 0 0 2.11-.598 8.114 8.114 0 0 1-1.864 1.934z"/>
</svg>
