<svg width="120" height="120" data-prefix="fal" data-icon="user-circle" xmlns="http://www.w3.org/2000/svg" viewBox="0 0 496 512" class="svg-inline--fa fa-user-circle fa-w-16 fa-5x">
  <path fill="#404040" d="M248 8a248 248 0 100 496 248 248 0 000-496zm128 422a215 215 0 01-256 0v-14c0-35 29-64 64-64 11 0 28 11 64 11 37 0 53-11 64-11 35 0 64 29 64 64v14zm31-28c-7-46-47-82-95-82-20 0-30 11-64 11s-43-11-64-11c-48 0-88 36-95 82a216 216 0 11317 0zM248 120a88 88 0 100 176 88 88 0 000-176zm0 144a56 56 0 110-112 56 56 0 010 112z"/>
</svg>
