<svg xmlns="http://www.w3.org/2000/svg" width="24" height="24" viewBox="0 0 24 24">
    <path fill="#373737" fill-rule="nonzero" d="M2 22l5.268-1.384A9.648 9.648 0 0 0 12 21.821a9.719 9.719 0 0 0 4.978-1.339 10.15 10.15 0 0 0 3.66-3.616A9.48 9.48 0 0 0 22 11.911c0-1.31-.26-2.567-.781-3.773a10.352 10.352 0 0 0-2.21-3.236 10.403 10.403 0 0 0-3.237-2.143A9.651 9.651 0 0 0 12 2a9.6 9.6 0 0 0-4.955 1.34 10.028 10.028 0 0 0-3.616 3.615 9.6 9.6 0 0 0-1.34 4.956 9.6 9.6 0 0 0 1.34 4.955L2 22zm10-1.83a7.96 7.96 0 0 1-4.196-1.161l-.313-.179-3.125.804.848-3.036-.178-.312A7.92 7.92 0 0 1 3.74 11.91a8 8 0 0 1 1.116-4.13 8.357 8.357 0 0 1 3.014-3.013A8 8 0 0 1 12 3.652a8.08 8.08 0 0 1 3.147.625 8.272 8.272 0 0 1 2.679 1.808 8.83 8.83 0 0 1 1.853 2.7 7.667 7.667 0 0 1 .67 3.126 7.88 7.88 0 0 1-1.14 4.13 8.48 8.48 0 0 1-3.057 3.013A8.119 8.119 0 0 1 12 20.17zm1.964-3.527c.387.06.789.06 1.206 0 .268-.03.587-.171.96-.424.371-.253.61-.506.714-.76.104-.252.163-.498.178-.736.015-.238.008-.387-.022-.446-.03-.06-.149-.134-.357-.223l-.134-.09c-.893-.446-1.458-.714-1.697-.803a1.312 1.312 0 0 0-.312-.045c-.09 0-.164.06-.223.179a15.4 15.4 0 0 1-.804.982c-.119.149-.297.163-.536.044-.833-.416-1.458-.788-1.874-1.116-.566-.446-1.057-1.056-1.474-1.83-.089-.09-.119-.171-.089-.246a1 1 0 0 1 .223-.29c.238-.238.432-.506.58-.803.06-.12.045-.268-.044-.447L9.5 7.76c-.06-.179-.126-.29-.2-.335a.558.558 0 0 0-.291-.067h-.536c-.238 0-.461.104-.67.313l-.044.044a2.823 2.823 0 0 0-.804 2.01c0 .773.328 1.621.982 2.544l.09.09c1.25 1.785 2.634 3.005 4.152 3.66.744.327 1.339.536 1.785.625z"/>
</svg>
