<svg xmlns="http://www.w3.org/2000/svg" width="24" height="24">
  <path fill="#25D366" d="M17.88 5.29a9.06 9.06 0 011.94 2.83 8.24 8.24 0 01.68 3.3 8.3 8.3 0 01-1.2 4.34 8.88 8.88 0 01-3.2 3.16 8.5 8.5 0 01-4.35 1.17 8.44 8.44 0 01-4.14-1.05L3 20.25l1.25-4.5a8.4 8.4 0 01-1.17-4.33A8.4 8.4 0 014.25 7.1a8.78 8.78 0 013.16-3.17 8.4 8.4 0 014.34-1.17c1.15 0 2.25.22 3.3.66a9.1 9.1 0 012.83 1.88zm-6.13 13.36a7.1 7.1 0 003.63-.98 7.42 7.42 0 002.68-2.64 6.9 6.9 0 001-3.6c0-.95-.2-1.86-.6-2.74a7.73 7.73 0 00-1.61-2.37 7.24 7.24 0 00-2.35-1.58 7.07 7.07 0 00-2.75-.55 7 7 0 00-3.61.98A7.31 7.31 0 005.5 7.81a7 7 0 00-.98 3.61 6.93 6.93 0 001.14 3.83l.15.27-.74 2.66 2.73-.7.28.15a6.96 6.96 0 003.67 1.02zm3.94-5.43l.12.08c.19.07.29.14.32.2a1 1 0 01.02.38 2.02 2.02 0 01-.16.65c-.1.22-.3.44-.63.66-.32.22-.6.34-.84.37a3.58 3.58 0 01-1.05 0 8.84 8.84 0 01-5.2-3.75l-.07-.08a3.95 3.95 0 01-.86-2.22c0-.68.23-1.27.7-1.76l.04-.04a.82.82 0 01.58-.27h.47c.1 0 .2.02.26.05.06.04.12.14.17.3l.67 1.6c.07.16.09.29.04.39-.13.26-.3.5-.51.7a.88.88 0 00-.2.26 5.05 5.05 0 001.37 1.82c.36.28.91.6 1.64.97.2.1.36.1.47-.04.34-.39.57-.68.7-.86.05-.1.12-.15.2-.15.08 0 .17 0 .27.03.2.08.7.32 1.48.7z"/>
  <use fill="#25D366"/>
</svg>
