<svg xmlns="http://www.w3.org/2000/svg" width="25" height="24" viewBox="0 0 25 24">
    <path fill="#F61C0D" fill-rule="evenodd" d="M22.133 6.844c.18.703.308 1.77.385 3.203L22.556 12l-.038 1.953c-.077 1.458-.205 2.54-.385 3.242a2.733 2.733 0 0 1-.692 1.172c-.333.339-.73.573-1.192.703-.667.183-2.231.313-4.693.39l-3.5.04-3.5-.04c-2.461-.077-4.025-.207-4.692-.39a2.657 2.657 0 0 1-1.192-.703 2.733 2.733 0 0 1-.693-1.172c-.18-.703-.307-1.784-.384-3.242L1.556 12c0-.573.013-1.224.039-1.953.077-1.432.205-2.5.384-3.203A2.718 2.718 0 0 1 3.864 4.93c.667-.183 2.23-.313 4.692-.39l3.5-.04 3.5.04c2.462.077 4.026.207 4.693.39a2.718 2.718 0 0 1 1.885 1.914zm-12.23 8.36l5.5-3.204-5.5-3.164v6.367z"/>
</svg>
